<svg width="20" height="20" viewBox="0 0 20 20" fill="none" xmlns="http://www.w3.org/2000/svg">
<path d="M10.3306 10.3125C13.1781 10.3125 15.4869 8.00375 15.4869 5.15625C15.4869 2.30875 13.1781 0 10.3306 0C7.48312 0 5.17438 2.30875 5.17438 5.15625C5.1775 8.0025 7.48437 10.3094 10.33 10.3125H10.3306ZM10.3306 1.5625C12.3156 1.5625 13.9244 3.17125 13.9244 5.15625C13.9244 7.14125 12.3156 8.75 10.3306 8.75C8.34562 8.75 6.73688 7.14125 6.73688 5.15625C6.73938 3.1725 8.34687 1.565 10.3306 1.5625ZM19.6419 18.115C18.6706 13.8 14.8712 10.625 10.33 10.625C5.78875 10.625 1.98937 13.8 1.03 18.0513L1.01813 18.115C1.00688 18.165 1 18.2225 1 18.2812C1 18.7125 1.35 19.0625 1.78125 19.0625C2.15375 19.0625 2.46562 18.8013 2.54375 18.4525L2.545 18.4475C3.35812 14.8413 6.53438 12.1875 10.3306 12.1875C14.1269 12.1875 17.3025 14.8406 18.1056 18.3937L18.1156 18.4469C18.1944 18.8006 18.505 19.0619 18.8775 19.0619C18.9369 19.0619 18.9944 19.055 19.05 19.0425L19.045 19.0437C19.3994 18.9656 19.66 18.6544 19.66 18.2819C19.66 18.2225 19.6531 18.165 19.6406 18.1094L19.6419 18.115Z" fill="white"/>
</svg>
