<svg width="20" height="20" viewBox="0 0 20 20" fill="none" xmlns="http://www.w3.org/2000/svg">
<g clip-path="url(#clip0_10_51)">
<path fill-rule="evenodd" clip-rule="evenodd" d="M15 16.875C14.31 16.875 13.75 17.435 13.75 18.125C13.75 18.815 14.31 19.375 15 19.375C15.69 19.375 16.25 18.815 16.25 18.125C16.25 17.435 15.69 16.875 15 16.875ZM8.75 16.875C8.06 16.875 7.5 17.435 7.5 18.125C7.5 18.815 8.06 19.375 8.75 19.375C9.44 19.375 10 18.815 10 18.125C10 17.435 9.44 16.875 8.75 16.875ZM16.875 13.125C16.875 13.815 16.315 14.375 15.625 14.375H8.75C8.06 14.375 7.5 13.815 7.5 13.125L6.45813 6.875H18.4375L16.875 13.125ZM6.23125 5.625L4.67188 0.625H0.625C0.279375 0.625 0 0.905 0 1.25C0 1.59562 0.279375 1.875 0.625 1.875H3.75L5.00687 5.625H5L6.25 13.125C6.25 14.5056 7.36937 15.625 8.75 15.625H15.625C17.0056 15.625 18.125 14.5056 18.125 13.125L20 5.625H6.23125Z" fill="white"/>
</g>
<defs>
<clipPath id="clip0_10_51">
<rect width="20" height="20" fill="white"/>
</clipPath>
</defs>
</svg>
