<svg width="28" height="28" viewBox="0 0 28 28" fill="none" xmlns="http://www.w3.org/2000/svg">
<g clip-path="url(#clip0_15_100)">
<path d="M26.5106 0H1.48936C0.666936 0 0 0.666936 0 1.48936V26.5106C0 27.3331 0.666936 28 1.48936 28H26.5106C27.3334 28 28 27.3331 28 26.5106V1.48936C28 0.666936 27.3334 0 26.5106 0ZM19.9366 6.36374L17.7842 6.36464C16.097 6.36464 15.7703 7.16651 15.7703 8.3434V10.9382H19.7948L19.7936 15.0023H15.7703V25.4314H11.5729V15.0023H8.0634V10.9382H11.5729V7.94098C11.5729 4.46272 13.6977 2.56855 16.8 2.56855L19.9366 2.57362V6.36374Z" fill="#2D7DFE"/>
</g>
<defs>
<clipPath id="clip0_15_100">
<rect width="28" height="28" fill="white"/>
</clipPath>
</defs>
</svg>
