<svg width="28" height="28" viewBox="0 0 28 28" fill="none" xmlns="http://www.w3.org/2000/svg">
<g clip-path="url(#clip0_15_93)">
<path d="M19.2867 9.57814H21.9023C22.4751 9.57814 22.9436 9.10929 22.9436 8.53618V6.04269C22.9436 5.46929 22.4751 5.00073 21.9023 5.00073H19.2867C18.7135 5.00073 18.245 5.46929 18.245 6.04269V8.53618C18.245 9.10929 18.7135 9.57814 19.2867 9.57814Z" fill="#2D7DFE"/>
<path d="M14.022 18.4526C16.5887 18.4526 18.6694 16.4366 18.6694 13.9497C18.6694 11.4628 16.5887 9.44678 14.022 9.44678C11.4553 9.44678 9.37463 11.4628 9.37463 13.9497C9.37463 16.4366 11.4553 18.4526 14.022 18.4526Z" fill="#2D7DFE"/>
<path d="M26.5106 0H1.48936C0.666936 0 0 0.666936 0 1.48936V26.5106C0 27.3331 0.666936 28 1.48936 28H26.5106C27.3334 28 28 27.3331 28 26.5106V1.48936C28 0.666936 27.3334 0 26.5106 0ZM25.5703 22.6002C25.5703 24.3609 24.2337 25.5703 22.6002 25.5703H5.39983C3.7663 25.5703 2.42974 24.3609 2.42974 22.6002V5.39983C2.42974 3.63911 3.766 2.42974 5.39983 2.42974H22.6002C24.2334 2.42974 25.5703 3.63911 25.5703 5.39983V22.6002Z" fill="#2D7DFE"/>
<path d="M21.2148 14.2013C21.2148 18.0504 17.9942 21.1703 14.0223 21.1703C10.0499 21.1703 6.82961 18.0501 6.82961 14.2013C6.82961 13.5114 6.93387 12.8451 7.12659 12.2157H5.00098V21.9904C5.00098 22.4962 5.41532 22.9102 5.9211 22.9102H22.0357C22.5412 22.9102 22.9555 22.4962 22.9555 21.9904V12.2157H20.9187C21.1105 12.8451 21.2148 13.5111 21.2148 14.2013Z" fill="#2D7DFE"/>
</g>
<defs>
<clipPath id="clip0_15_93">
<rect width="28" height="28" fill="white"/>
</clipPath>
</defs>
</svg>
