<svg width="28" height="28" viewBox="0 0 28 28" fill="none" xmlns="http://www.w3.org/2000/svg">
<g clip-path="url(#clip0_15_90)">
<path d="M26.5106 0H1.48936C0.666638 0 0 0.666936 0 1.48936V26.5106C0 27.3331 0.666638 28 1.48936 28H26.5106C27.3334 28 28 27.3331 28 26.5106V1.48936C28 0.666936 27.3334 0 26.5106 0ZM15.7908 19.1687C14.3509 19.1687 12.9971 18.3906 12.5339 17.5071C12.5339 17.5071 11.7594 20.5779 11.5968 21.1707C11.0195 23.265 9.32191 25.3611 9.19055 25.533C9.09791 25.6522 8.89506 25.6149 8.87391 25.4565C8.83728 25.1896 8.40387 22.5466 8.91353 20.3911C9.16881 19.3084 10.6281 13.1278 10.6281 13.1278C10.6281 13.1278 10.2027 12.2768 10.2027 11.0183C10.2027 9.04311 11.3483 7.56804 12.7737 7.56804C13.986 7.56804 14.5713 8.47834 14.5713 9.56945C14.5713 10.788 13.7954 12.6104 13.395 14.2991C13.0605 15.7137 14.1034 16.8667 15.498 16.8667C18.0234 16.8667 19.7239 13.6229 19.7239 9.77974C19.7239 6.85881 17.758 4.67153 14.1787 4.67153C10.1363 4.67153 7.6154 7.68719 7.6154 11.0558C7.6154 12.2169 7.95855 13.0367 8.49562 13.67C8.74166 13.9613 8.77651 14.0783 8.68715 14.4129C8.62191 14.6586 8.47655 15.2484 8.41549 15.4822C8.32643 15.8203 8.05298 15.9412 7.74766 15.8161C5.88596 15.056 5.01796 13.0167 5.01796 10.724C5.01796 6.93774 8.21145 2.39698 14.5445 2.39698C19.634 2.39698 22.9832 6.07928 22.9832 10.0329C22.9826 15.2618 20.0751 19.1687 15.7908 19.1687Z" fill="#2D7DFE"/>
</g>
<defs>
<clipPath id="clip0_15_90">
<rect width="28" height="28" fill="white"/>
</clipPath>
</defs>
</svg>
