<svg width="28" height="28" viewBox="0 0 28 28" fill="none" xmlns="http://www.w3.org/2000/svg">
<g clip-path="url(#clip0_15_103)">
<path d="M26.5106 0H1.48936C0.666936 0 0 0.666936 0 1.48936V26.5106C0 27.3331 0.666936 28 1.48936 28H26.5106C27.3334 28 28 27.3331 28 26.5106V1.48936C28 0.666936 27.3334 0 26.5106 0ZM12.1094 18.7707C12.6319 19.3099 13.2666 19.5794 14.0128 19.5794H19.3852C20.1299 19.5794 20.77 19.855 21.3029 20.4049C21.8364 20.9544 22.1027 21.613 22.1027 22.3821C22.1027 23.1506 21.8364 23.8116 21.3029 24.3597C20.77 24.909 20.1317 25.1836 19.3852 25.1836H14.0149C11.7779 25.1836 9.86583 24.3648 8.27877 22.7259C6.68991 21.0876 5.89638 19.1142 5.89638 16.8054V5.62145C5.89638 4.8306 6.16119 4.16485 6.68991 3.6254C7.21864 3.08685 7.86502 2.81728 8.62757 2.81728C9.36719 2.81728 10.0046 3.09162 10.5322 3.64238C11.0615 4.19077 11.3266 4.84966 11.3266 5.61936V8.42055H19.3775C20.1257 8.42055 20.7668 8.69579 21.3014 9.24536C21.8373 9.79434 22.103 10.4538 22.103 11.2232C22.103 11.9914 21.8364 12.6509 21.3029 13.2002C20.77 13.7492 20.1299 14.0241 19.3849 14.0241H11.3263V16.8018C11.3263 17.5733 11.5866 18.2292 12.1094 18.7707Z" fill="#2D7DFE"/>
</g>
<defs>
<clipPath id="clip0_15_103">
<rect width="28" height="28" fill="white"/>
</clipPath>
</defs>
</svg>
