<svg width="113" height="85" viewBox="0 0 113 85" fill="none" xmlns="http://www.w3.org/2000/svg">
<path d="M7.1 69.9L2.2 63.2L2.3 69.9H0V59.6H2.1L7 66.2H7.1L7 59.6H9.3V69.9H7.1Z" fill="white"/>
<path d="M17.1 70C14.1 70 11.7 67.8 11.7 64.8C11.7 61.7 14.1 59.5 17.1 59.5C20.1 59.5 22.6 61.7 22.6 64.8C22.6 67.8 20.1 70 17.1 70ZM20.1 64.7C20.1 62.9 18.8 61.6 17.2 61.6C15.6 61.6 14.3 62.9 14.3 64.7C14.3 66.5 15.6 67.8 17.2 67.8C18.8 67.8 20.1 66.5 20.1 64.7Z" fill="white"/>
<path d="M31.1 69.9L29.1 66.2H27.4V69.9H25V59.6H29.6C31.9 59.6 33.4 60.6 33.4 62.8C33.4 64.3 32.5 65.2 31.4 65.7L33.8 69.8H31.1V69.9ZM29.6 64.2C30.4 64.2 31 63.6 31 62.9V62.8C31 62 30.5 61.5 29.6 61.5H27.4V64.2H29.6Z" fill="white"/>
<path d="M35.9 69.9V59.6H40.3C43.4 59.6 45.8 61.7 45.8 64.8C45.8 67.8 43.4 69.9 40.3 69.9H35.9ZM40.4 67.8C42.1 67.8 43.4 66.5 43.4 64.7C43.4 62.9 42.1 61.6 40.4 61.6H38.4V67.8H40.4Z" fill="white"/>
<path d="M48.3 69.9V59.6H50.7V69.9H48.3Z" fill="white"/>
<path d="M59.4 62.9C59.1 62 58.4 61.4 57.2 61.4C56.3 61.4 55.5 61.7 55.5 62.4C55.5 63.1 56.2 63.4 57.9 63.6C60.4 63.9 61.8 64.7 61.8 66.6C61.8 68.8 59.9 70 57.4 70C55.1 70 53.2 68.9 53 66.5H55.3C55.5 67.3 56.2 68.1 57.5 68.1C58.6 68.1 59.4 67.7 59.4 67C59.4 66.1 58.5 65.9 56.7 65.7C54.6 65.4 53.1 64.8 53.1 62.9C53.1 61 54.7 59.6 57.3 59.6C59.8 59.6 61.5 61 61.7 63.1H59.4V62.9Z" fill="white"/>
<path d="M70 69.9L66.6 65.6V69.9H64.2V59.6H66.6V63.7L69.9 59.6H72.6L68.5 64.4L72.8 69.9H70Z" fill="white"/>
<path d="M81.1 65.7V69.9H78.7V59.6H86.4V61.6H81V63.6H85.2V65.6H81.1V65.7Z" fill="white"/>
<path d="M88.4 69.9V59.6H90.8V69.9H88.4Z" fill="white"/>
<path d="M93.7 69.9V59.6H96.1V67.9H101V69.9H93.7Z" fill="white"/>
<path d="M110.6 69.9V63.1H110.5L108.1 66.1H107.7L105.3 63.1H105.2V69.9H102.8V59.6H105.1L107.9 63.2L110.7 59.6H112.9V69.9H110.6Z" fill="white"/>
<path d="M65 33.4L70.2 23.4C74.7 14.9 69 8.19999 56 5.79999L53.1 3.99999L40.9 1.39999L40 0.399987L38.5 0.699987L38 0.199987C36.7 -1.2815e-05 35.4 -1.2815e-05 34.1 0.0999872C31.7 0.299987 30.6 0.999987 30.6 0.999987L30.3 1.39999L25.3 2.89999V3.09999L26.2 3.19999L26 3.99999L25.4 4.29999L25.7 5.29999C25.8 5.49999 26 5.69999 26.6 5.79999L32.5 6.99999L46.8 15L51.5 30.3V30.9L50 32.7C49.2 32.9 48.4 33.2 47.6 33.5L49.4 30.6V30.2L46.1 19.6L42.4 17L47.8 30.7L46 34.2C37.4 38.2 32 46.8 32 56.3C32 56.5 32 56.8 32 57C33.6 42.9 46.4 32.7 60.6 34.3C66.8 35 72.5 37.9 76.7 42.4C73.8 38.3 69.8 35.1 65 33.4ZM32.1 2.69999L30.4 2.89999L30.3 2.59999L30.8 1.89999L32.3 1.99999L32.1 2.69999ZM38.6 2.09999L38.5 1.49999L39.5 1.29999L40 2.19999L38.6 2.09999ZM60.3 30.9L58.9 32C58.3 31.9 57.7 31.9 57 31.9L57.3 30.3L56.4 19.5L61.1 22.1L60.3 30.9Z" fill="white"/>
<path d="M30.7603 84V76.7273H33.4876C34.0463 76.7273 34.515 76.8314 34.8938 77.0398C35.275 77.2481 35.5626 77.5346 35.7567 77.8991C35.9532 78.2614 36.0515 78.6733 36.0515 79.1349C36.0515 79.6013 35.9532 80.0156 35.7567 80.3778C35.5603 80.7401 35.2702 81.0253 34.8867 81.2337C34.5032 81.4396 34.0309 81.5426 33.4698 81.5426H31.6623V80.4595H33.2923C33.619 80.4595 33.8865 80.4027 34.0948 80.2891C34.3031 80.1754 34.457 80.0192 34.5565 79.8203C34.6583 79.6214 34.7092 79.393 34.7092 79.1349C34.7092 78.8769 34.6583 78.6496 34.5565 78.4531C34.457 78.2566 34.302 78.1039 34.0913 77.995C33.8829 77.8838 33.6142 77.8281 33.2852 77.8281H32.0778V84H30.7603ZM37.1958 84V76.7273H38.5133V82.8956H41.7164V84H37.1958ZM44.0673 84H42.661L45.2214 76.7273H46.8478L49.4118 84H48.0055L46.063 78.2188H46.0062L44.0673 84ZM44.1135 81.1484H47.9487V82.2067H44.1135V81.1484ZM50.3697 84V76.7273H51.6871V80.0689H51.7759L54.6133 76.7273H56.2219L53.4094 79.9908L56.2468 84H54.663L52.4933 80.8821L51.6871 81.8338V84H50.3697ZM58.0712 84H56.665L59.2253 76.7273H60.8517L63.4157 84H62.0094L60.0669 78.2188H60.0101L58.0712 84ZM58.1174 81.1484H61.9526V82.2067H58.1174V81.1484ZM63.1751 77.8317V76.7273H68.9776V77.8317H66.7298V84H65.4229V77.8317H63.1751ZM70.0962 84V76.7273H74.8263V77.8317H71.4137V79.8061H74.5813V80.9105H71.4137V82.8956H74.8548V84H70.0962ZM76.1705 84V76.7273H78.8977C79.4564 76.7273 79.9252 76.8243 80.304 77.0185C80.6851 77.2126 80.9728 77.4848 81.1669 77.8352C81.3634 78.1832 81.4616 78.5893 81.4616 79.0533C81.4616 79.5196 81.3622 79.9245 81.1634 80.2678C80.9669 80.6087 80.6768 80.8726 80.2933 81.0597C79.9098 81.2443 79.4387 81.3366 78.88 81.3366H76.9375V80.2429H78.7024C79.0291 80.2429 79.2966 80.1979 79.505 80.108C79.7133 80.0156 79.8672 79.8819 79.9666 79.7067C80.0684 79.5291 80.1193 79.3113 80.1193 79.0533C80.1193 78.7952 80.0684 78.575 79.9666 78.3928C79.8648 78.2081 79.7098 78.0684 79.5014 77.9737C79.2931 77.8767 79.0244 77.8281 78.6953 77.8281H77.4879V84H76.1705ZM79.9276 80.7045L81.728 84H80.2578L78.4893 80.7045H79.9276Z" fill="white"/>
</svg>
